<?xml version="1.0" encoding="UTF-8" standalone="no"?>
<!-- Created with Inkscape (http://www.inkscape.org/) -->

<svg
   width="16"
   height="16"
   viewBox="0 0 4.2333333 4.2333333"
   version="1.1"
   id="svg1"
   xml:space="preserve"
   inkscape:version="1.4 (86a8ad7, 2024-10-11)"
   sodipodi:docname="favicon-16x16svg.svg"
   xmlns:inkscape="http://www.inkscape.org/namespaces/inkscape"
   xmlns:sodipodi="http://sodipodi.sourceforge.net/DTD/sodipodi-0.dtd"
   xmlns="http://www.w3.org/2000/svg"
   xmlns:svg="http://www.w3.org/2000/svg"><sodipodi:namedview
     id="namedview1"
     pagecolor="#505050"
     bordercolor="#eeeeee"
     borderopacity="1"
     inkscape:showpageshadow="0"
     inkscape:pageopacity="0"
     inkscape:pagecheckerboard="0"
     inkscape:deskcolor="#505050"
     inkscape:document-units="mm"
     inkscape:zoom="11.33165"
     inkscape:cx="1.9855891"
     inkscape:cy="17.42906"
     inkscape:window-width="1920"
     inkscape:window-height="991"
     inkscape:window-x="-9"
     inkscape:window-y="-9"
     inkscape:window-maximized="1"
     inkscape:current-layer="layer1" /><defs
     id="defs1"><rect
       x="648.95795"
       y="657.17261"
       width="6070.6318"
       height="2809.4128"
       id="rect25" /><rect
       x="648.95795"
       y="657.17261"
       width="6070.6318"
       height="2809.4128"
       id="rect25-5" /></defs><g
     inkscape:label="Camada 1"
     inkscape:groupmode="layer"
     id="layer1"
     style="display:inline"><g
       id="g1"><rect
         style="fill:#ffffff;fill-opacity:1;stroke-width:1.00012;stroke-linecap:round;stroke-linejoin:round"
         id="rect8"
         width="4.2276187"
         height="4.2276187"
         x="0.0028573195"
         y="0.0028573195"
         ry="0.36767939" /><g
         id="g20"
         transform="matrix(0.4641598,0,0,0.42463446,-9.5295033,-0.69036869)"
         style="stroke-width:2.25246"><path
           id="text12"
           style="font-size:10.7288px;font-family:'Bebas Neue';-inkscape-font-specification:'Bebas Neue, Normal';font-variant-position:super;fill:#1569a4;stroke-width:2.25272;stroke-linecap:round;stroke-linejoin:round"
           sodipodi:type="inkscape:offset"
           inkscape:radius="0"
           inkscape:original="M 22.800781 2.8339844 L 22.800781 8.5957031 C 22.800781 8.8388893 22.743351 9.0209851 22.628906 9.1425781 C 22.514465 9.2570187 22.339549 9.3144531 22.103516 9.3144531 C 21.960465 9.3144531 21.831237 9.3000944 21.716797 9.2714844 L 21.716797 10.34375 C 21.867 10.37236 22.049096 10.386719 22.263672 10.386719 C 22.843027 10.386719 23.271832 10.235953 23.550781 9.9355469 C 23.836882 9.6351406 23.980469 9.1776179 23.980469 8.5625 L 23.980469 2.8339844 L 22.800781 2.8339844 z M 24.828125 2.8339844 L 24.828125 10.34375 L 26.007812 10.34375 L 26.007812 7.125 L 26.416016 7.125 C 26.687812 7.125 26.877087 7.1922269 26.984375 7.328125 C 27.098816 7.4640232 27.15625 7.7035534 27.15625 8.046875 L 27.15625 9.421875 C 27.15625 9.7008237 27.163444 9.8927121 27.177734 10 C 27.192044 10.107288 27.220762 10.222156 27.263672 10.34375 L 28.464844 10.34375 C 28.407624 10.215004 28.371729 10.085777 28.357422 9.9570312 C 28.343112 9.8211331 28.335937 9.6462166 28.335938 9.4316406 L 28.335938 8.1113281 C 28.335938 7.6678711 28.275885 7.315425 28.154297 7.0507812 C 28.039856 6.7861375 27.838835 6.6092679 27.552734 6.5234375 L 27.552734 6.5039062 C 28.067717 6.2964829 28.326172 5.8011105 28.326172 5.0214844 L 28.326172 4.5605469 C 28.326172 3.9740392 28.187152 3.5426207 27.908203 3.2636719 C 27.629254 2.9775706 27.18609 2.8339844 26.578125 2.8339844 L 24.828125 2.8339844 z M 26.007812 3.90625 L 26.544922 3.90625 C 26.752345 3.90625 26.903111 3.9662978 26.996094 4.0878906 C 27.09623 4.2094837 27.146484 4.4078912 27.146484 4.6796875 L 27.146484 5.2578125 C 27.146484 5.5439138 27.084479 5.7475476 26.962891 5.8691406 C 26.84845 5.9907337 26.673533 6.0527344 26.4375 6.0527344 L 26.007812 6.0527344 L 26.007812 3.90625 z "
           d="m 22.800781,2.8339844 v 5.7617187 c 0,0.2431862 -0.05743,0.425282 -0.171875,0.546875 -0.114441,0.1144406 -0.289357,0.171875 -0.52539,0.171875 -0.143051,0 -0.272279,-0.014359 -0.386719,-0.042969 V 10.34375 c 0.150203,0.02861 0.332299,0.04297 0.546875,0.04297 0.579355,0 1.00816,-0.150766 1.287109,-0.4511721 C 23.836882,9.6351406 23.980469,9.1776179 23.980469,8.5625 V 2.8339844 Z m 2.027344,0 V 10.34375 h 1.179687 V 7.125 h 0.408204 c 0.271796,0 0.461071,0.067227 0.568359,0.203125 0.114441,0.1358982 0.171875,0.3754284 0.171875,0.71875 v 1.375 c 0,0.2789487 0.0072,0.4708371 0.02148,0.578125 0.01431,0.107288 0.04303,0.222156 0.08594,0.34375 h 1.201172 c -0.05722,-0.128746 -0.09312,-0.257973 -0.107422,-0.3867188 -0.01431,-0.1358981 -0.02148,-0.3108146 -0.02148,-0.5253906 V 8.1113281 c 0,-0.443457 -0.06005,-0.7959031 -0.181641,-1.0605469 C 28.039856,6.7861375 27.838835,6.6092679 27.552734,6.5234375 V 6.5039062 C 28.067717,6.2964829 28.326172,5.8011105 28.326172,5.0214844 V 4.5605469 c 0,-0.5865077 -0.13902,-1.0179262 -0.417969,-1.296875 C 27.629254,2.9775706 27.18609,2.8339844 26.578125,2.8339844 Z M 26.007812,3.90625 h 0.53711 c 0.207423,0 0.358189,0.060048 0.451172,0.1816406 0.100136,0.1215931 0.15039,0.3200006 0.15039,0.5917969 v 0.578125 c 0,0.2861013 -0.062,0.4897351 -0.183593,0.6113281 C 26.84845,5.9907337 26.673533,6.0527344 26.4375,6.0527344 h -0.429688 z" /><path
           id="path19"
           style="fill:#5aa3d5;fill-opacity:1;stroke-width:2.25272;stroke-linecap:round;stroke-linejoin:round"
           d="m 25.418604,6.6776286 a 8.4523582,3.665802 0 0 0 -0.590662,0.017053 v 3.6488734 h 1.179773 V 7.1251465 h 0.408244 c 0.271796,0 0.461152,0.06719 0.56844,0.2030884 0.114441,0.1358982 0.172083,0.3754975 0.172083,0.7188191 v 1.3745931 c 0,0.2789487 0.0069,0.4709714 0.02119,0.5782593 0.01431,0.1072876 0.04287,0.2220546 0.08578,0.3436486 h 1.201477 c -0.05722,-0.128746 -0.09318,-0.257794 -0.107487,-0.38654 -0.01431,-0.1358981 -0.0217,-0.3109733 -0.0217,-0.5255493 V 8.1111328 c 0,-0.443457 -0.0598,-0.7957566 -0.181384,-1.0604004 C 28.124127,6.980834 28.087078,6.9176383 28.0448,6.8600464 A 8.4523582,3.665802 0 0 0 25.418604,6.6776286 Z M 23.980448,6.73809 a 8.4523582,3.665802 0 0 0 -1.179773,0.1276408 v 1.7301269 c 0,0.2431862 -0.05712,0.4251437 -0.171565,0.5467367 -0.114441,0.1144406 -0.289517,0.1720825 -0.52555,0.1720825 -0.143051,0 -0.272099,-0.014798 -0.386539,-0.043408 v 1.0722861 c 0.150203,0.02861 0.33216,0.04341 0.546736,0.04341 0.579355,0 1.008311,-0.151246 1.28726,-0.4516519 0.286101,-0.3004063 0.429431,-0.7579249 0.429431,-1.3730428 z" /></g></g></g></svg>
